<svg width="126" height="26" viewBox="0 0 126 26" fill="none" xmlns="http://www.w3.org/2000/svg">
<path fill-rule="evenodd" clip-rule="evenodd" d="M23.5 7.08069C23.8652 7.49497 23.8255 8.12689 23.4112 8.49211L14.1613 16.7058C13.7653 17.0549 13.1661 17.036 12.7929 16.6627L9.29285 13.1627C8.90233 12.7722 8.90233 12.1391 9.29285 11.7485C9.68338 11.358 10.3165 11.358 10.7071 11.7485L13.5431 14.5845L22.0886 6.99186C22.5029 6.62663 23.1348 6.66641 23.5 7.08069Z" fill="black"/>
<path d="M13.8857 6.39928C13.8261 6.41393 13.6744 6.45124 13.5112 6.45124C13.3468 6.45124 13.1947 6.41345 13.135 6.39862L13.1339 6.39834C13.0484 6.3771 12.9537 6.34947 12.8637 6.32241C12.8016 6.30376 12.7384 6.2844 12.6725 6.26422C12.5318 6.22114 12.3789 6.17432 12.1987 6.1226C11.6836 5.97476 11.0335 5.81386 10.32 5.73615C8.88412 5.57978 7.31541 5.76914 6.0624 6.94493C5.11805 7.83107 4.90327 8.95518 5.03403 10.1089C5.16734 11.2851 5.65544 12.3842 5.97617 12.9962C6.21285 13.4478 6.37812 13.9784 6.37812 14.5536V20.6891C6.37812 21.2414 6.82583 21.6891 7.37812 21.6891H19.656C20.2083 21.6891 20.656 21.2414 20.656 20.6891V14.541C20.656 14.3985 20.6662 14.2586 20.6851 14.1221C20.7474 13.6708 20.8953 13.5048 21.2269 13.2101L23.5314 11.1621C23.8336 10.8936 23.9043 10.7755 23.8051 11.2287C23.5527 12.3824 23.1104 13.3616 22.8226 13.9238C22.7089 14.1459 22.656 14.3553 22.656 14.541V20.6891C22.656 22.346 21.3129 23.6891 19.656 23.6891H6.37812C4.72126 23.6891 1.49963 22.689 1.37812 20.6891V14.5536C1.37812 14.3639 1.32303 14.1504 1.20469 13.9245C0.835131 13.2194 0.220371 11.866 0.046752 10.3341C-0.129424 8.7797 0.144779 6.94008 1.69384 5.48649C4.25379 3.0843 8.80095 3.55889 10.5365 3.74791C11.4087 3.8429 12.1804 4.0366 12.7504 4.2002C12.9478 4.25684 13.1325 4.31336 13.2795 4.35838C13.3396 4.37677 13.3934 4.39324 13.4393 4.40702C13.4667 4.41526 13.491 4.42247 13.5125 4.42874C13.5353 4.42221 13.561 4.41467 13.5903 4.40599C13.6367 4.39223 13.6911 4.37579 13.7515 4.35754C13.9008 4.31247 14.0878 4.25599 14.2882 4.19923C14.8649 4.03592 15.6446 3.84261 16.5221 3.7478C17.861 3.60314 19.5132 3.6813 21.0301 4.51896C21.7099 4.8944 21.5311 4.91321 20.9789 5.40294C20.7421 5.61294 20.3726 5.94066 20.3726 5.94066C19.9812 6.2878 19.9329 6.1695 19.4543 5.99483C18.5805 5.67596 17.6384 5.63883 16.7369 5.73623C16.0159 5.81412 15.3562 5.97543 14.8332 6.12355C14.6498 6.17548 14.4938 6.22263 14.3506 6.26587C14.2845 6.28586 14.221 6.30503 14.159 6.32343C14.0679 6.35045 13.9727 6.37788 13.8871 6.39893L13.8857 6.39928Z" fill="black"/>
<path d="M40.5961 17.772H40.5321C40.4361 18.316 40.1321 18.7747 39.6201 19.148C39.1188 19.5107 38.4468 19.692 37.6041 19.692C36.9428 19.692 36.3295 19.5693 35.7641 19.324C35.2095 19.0787 34.7241 18.716 34.3081 18.236C33.9028 17.7453 33.5828 17.1427 33.3481 16.428C33.1135 15.7133 32.9961 14.8867 32.9961 13.948C32.9961 13.0093 33.1135 12.1827 33.3481 11.468C33.5935 10.7427 33.9348 10.1347 34.3721 9.644C34.8095 9.15333 35.3321 8.78 35.9401 8.524C36.5481 8.268 37.2255 8.14 37.9721 8.14C38.9748 8.14 39.8281 8.35867 40.5321 8.796C41.2361 9.23333 41.7908 9.86267 42.1961 10.684L40.4841 11.692C40.2815 11.212 39.9775 10.812 39.5721 10.492C39.1775 10.172 38.6441 10.012 37.9721 10.012C37.1401 10.012 36.4735 10.268 35.9721 10.78C35.4815 11.2813 35.2361 12.028 35.2361 13.02V14.812C35.2361 15.7933 35.4868 16.54 35.9881 17.052C36.4895 17.564 37.1615 17.82 38.0041 17.82C38.3348 17.82 38.6441 17.7827 38.9321 17.708C39.2201 17.6227 39.4708 17.5 39.6841 17.34C39.8975 17.18 40.0681 16.9827 40.1961 16.748C40.3241 16.5133 40.3881 16.236 40.3881 15.916V15.196H38.1961V13.42H42.4201V19.5H40.5961V17.772ZM48.1147 19.692C47.4961 19.692 46.9414 19.5907 46.4507 19.388C45.9707 19.1747 45.5601 18.8813 45.2187 18.508C44.8881 18.124 44.6321 17.6653 44.4507 17.132C44.2694 16.588 44.1787 15.98 44.1787 15.308C44.1787 14.6467 44.2641 14.0493 44.4347 13.516C44.6161 12.9827 44.8721 12.5293 45.2027 12.156C45.5334 11.772 45.9387 11.4787 46.4187 11.276C46.8987 11.0627 47.4427 10.956 48.0507 10.956C48.7014 10.956 49.2667 11.068 49.7467 11.292C50.2267 11.516 50.6214 11.82 50.9307 12.204C51.2401 12.588 51.4694 13.036 51.6187 13.548C51.7787 14.0493 51.8587 14.588 51.8587 15.164V15.836H46.3067V16.044C46.3067 16.652 46.4774 17.1427 46.8187 17.516C47.1601 17.8787 47.6667 18.06 48.3387 18.06C48.8507 18.06 49.2667 17.9533 49.5867 17.74C49.9174 17.5267 50.2107 17.2547 50.4667 16.924L51.5707 18.156C51.2294 18.636 50.7601 19.0147 50.1627 19.292C49.5761 19.5587 48.8934 19.692 48.1147 19.692ZM48.0827 12.492C47.5387 12.492 47.1067 12.6733 46.7867 13.036C46.4667 13.3987 46.3067 13.868 46.3067 14.444V14.572H49.7307V14.428C49.7307 13.852 49.5867 13.388 49.2987 13.036C49.0214 12.6733 48.6161 12.492 48.0827 12.492ZM56.2686 19.5C55.5646 19.5 55.026 19.3187 54.6526 18.956C54.29 18.5827 54.1086 18.0547 54.1086 17.372V12.78H52.8766V11.148H53.5166C53.826 11.148 54.034 11.0787 54.1406 10.94C54.258 10.7907 54.3166 10.572 54.3166 10.284V8.86H56.1566V11.148H57.8686V12.78H56.1566V17.868H57.7406V19.5H56.2686ZM59.773 19.5V8.332H64.797C65.309 8.332 65.7677 8.41733 66.173 8.588C66.589 8.748 66.941 8.98267 67.229 9.292C67.517 9.59067 67.7357 9.95333 67.885 10.38C68.0343 10.8067 68.109 11.276 68.109 11.788C68.109 12.3107 68.0343 12.7853 67.885 13.212C67.7357 13.628 67.517 13.9907 67.229 14.3C66.941 14.5987 66.589 14.8333 66.173 15.004C65.7677 15.164 65.309 15.244 64.797 15.244H61.885V19.5H59.773ZM61.885 13.42H64.605C65.0103 13.42 65.3303 13.3133 65.565 13.1C65.7997 12.876 65.917 12.5613 65.917 12.156V11.42C65.917 11.0147 65.7997 10.7053 65.565 10.492C65.3303 10.2787 65.0103 10.172 64.605 10.172H61.885V13.42ZM70.023 19.5V8.332H77.383V10.204H72.135V12.908H76.775V14.78H72.135V17.628H77.383V19.5H70.023ZM79.6167 8.332H84.7847C85.2434 8.332 85.6541 8.40133 86.0167 8.54C86.3901 8.67867 86.7047 8.87067 86.9607 9.116C87.2167 9.36133 87.4087 9.66533 87.5367 10.028C87.6754 10.38 87.7447 10.7693 87.7447 11.196C87.7447 11.6227 87.6861 11.9853 87.5687 12.284C87.4621 12.572 87.3127 12.812 87.1207 13.004C86.9394 13.196 86.7261 13.34 86.4807 13.436C86.2461 13.532 86.0007 13.5853 85.7447 13.596V13.692C85.9901 13.692 86.2514 13.74 86.5287 13.836C86.8167 13.932 87.0781 14.0867 87.3127 14.3C87.5581 14.5027 87.7607 14.7693 87.9207 15.1C88.0807 15.42 88.1607 15.82 88.1607 16.3C88.1607 16.748 88.0861 17.1693 87.9367 17.564C87.7981 17.948 87.6007 18.284 87.3447 18.572C87.0887 18.86 86.7847 19.0893 86.4327 19.26C86.0807 19.42 85.6967 19.5 85.2807 19.5H79.6167V8.332ZM81.7287 17.708H84.6727C85.0781 17.708 85.3927 17.6067 85.6167 17.404C85.8407 17.1907 85.9527 16.8867 85.9527 16.492V15.948C85.9527 15.5533 85.8407 15.2493 85.6167 15.036C85.3927 14.8227 85.0781 14.716 84.6727 14.716H81.7287V17.708ZM81.7287 12.988H84.3367C84.7207 12.988 85.0194 12.8867 85.2327 12.684C85.4461 12.4707 85.5527 12.1773 85.5527 11.804V11.308C85.5527 10.9347 85.4461 10.6467 85.2327 10.444C85.0194 10.2307 84.7207 10.124 84.3367 10.124H81.7287V12.988ZM94.1882 10.204V19.5H92.0762V10.204H88.9082V8.332H97.3562V10.204H94.1882ZM98.9856 19.676C98.5483 19.676 98.223 19.5693 98.0096 19.356C97.807 19.132 97.7056 18.8493 97.7056 18.508V18.22C97.7056 17.8787 97.807 17.596 98.0096 17.372C98.223 17.148 98.5483 17.036 98.9856 17.036C99.4336 17.036 99.759 17.148 99.9616 17.372C100.164 17.596 100.266 17.8787 100.266 18.22V18.508C100.266 18.8493 100.164 19.132 99.9616 19.356C99.759 19.5693 99.4336 19.676 98.9856 19.676ZM105.644 19.692C105.047 19.692 104.508 19.5907 104.028 19.388C103.559 19.1853 103.154 18.892 102.812 18.508C102.482 18.124 102.226 17.6653 102.044 17.132C101.863 16.588 101.772 15.98 101.772 15.308C101.772 14.636 101.863 14.0333 102.044 13.5C102.226 12.9667 102.482 12.5133 102.812 12.14C103.154 11.756 103.559 11.4627 104.028 11.26C104.508 11.0573 105.047 10.956 105.644 10.956C106.242 10.956 106.78 11.0573 107.26 11.26C107.74 11.4627 108.146 11.756 108.476 12.14C108.818 12.5133 109.079 12.9667 109.26 13.5C109.442 14.0333 109.532 14.636 109.532 15.308C109.532 15.98 109.442 16.588 109.26 17.132C109.079 17.6653 108.818 18.124 108.476 18.508C108.146 18.892 107.74 19.1853 107.26 19.388C106.78 19.5907 106.242 19.692 105.644 19.692ZM105.644 18.044C106.188 18.044 106.615 17.8787 106.924 17.548C107.234 17.2173 107.388 16.732 107.388 16.092V14.54C107.388 13.9107 107.234 13.4307 106.924 13.1C106.615 12.7693 106.188 12.604 105.644 12.604C105.111 12.604 104.69 12.7693 104.38 13.1C104.071 13.4307 103.916 13.9107 103.916 14.54V16.092C103.916 16.732 104.071 17.2173 104.38 17.548C104.69 17.8787 105.111 18.044 105.644 18.044ZM111.348 19.5V11.148H113.396V12.876H113.476C113.529 12.652 113.609 12.4387 113.716 12.236C113.833 12.0227 113.983 11.836 114.164 11.676C114.345 11.516 114.559 11.388 114.804 11.292C115.06 11.196 115.353 11.148 115.684 11.148H116.132V13.084H115.492C114.799 13.084 114.276 13.1853 113.924 13.388C113.572 13.5907 113.396 13.9213 113.396 14.38V19.5H111.348ZM124.9 20.204C124.9 20.6413 124.82 21.0253 124.66 21.356C124.51 21.6973 124.26 21.98 123.908 22.204C123.556 22.428 123.102 22.5987 122.548 22.716C121.993 22.8333 121.316 22.892 120.516 22.892C119.812 22.892 119.214 22.844 118.724 22.748C118.233 22.6627 117.828 22.5347 117.508 22.364C117.198 22.204 116.974 22.0013 116.836 21.756C116.697 21.5107 116.628 21.2333 116.628 20.924C116.628 20.4547 116.756 20.0867 117.012 19.82C117.278 19.564 117.646 19.3987 118.116 19.324V19.148C117.774 19.0627 117.508 18.8973 117.316 18.652C117.134 18.396 117.044 18.0973 117.044 17.756C117.044 17.5427 117.086 17.356 117.172 17.196C117.257 17.0253 117.369 16.8813 117.508 16.764C117.657 16.6467 117.822 16.5507 118.004 16.476C118.185 16.3907 118.377 16.3267 118.58 16.284V16.22C118.068 15.9853 117.684 15.66 117.428 15.244C117.182 14.828 117.06 14.3427 117.06 13.788C117.06 12.9347 117.353 12.252 117.94 11.74C118.526 11.2173 119.385 10.956 120.516 10.956C120.772 10.956 121.022 10.972 121.268 11.004C121.524 11.036 121.758 11.0893 121.972 11.164V10.892C121.972 10.0813 122.366 9.676 123.156 9.676H124.452V11.244H122.676V11.468C123.113 11.7133 123.438 12.0333 123.652 12.428C123.865 12.8227 123.972 13.276 123.972 13.788C123.972 14.6307 123.678 15.308 123.092 15.82C122.516 16.332 121.657 16.588 120.516 16.588C120.025 16.588 119.598 16.54 119.236 16.444C119.076 16.5187 118.937 16.62 118.82 16.748C118.702 16.8653 118.644 17.0147 118.644 17.196C118.644 17.612 119.006 17.82 119.732 17.82H121.972C122.996 17.82 123.737 18.0333 124.196 18.46C124.665 18.876 124.9 19.4573 124.9 20.204ZM122.98 20.444C122.98 20.1773 122.873 19.9693 122.66 19.82C122.446 19.6707 122.078 19.596 121.556 19.596H118.708C118.42 19.8093 118.276 20.0973 118.276 20.46C118.276 20.78 118.409 21.0307 118.676 21.212C118.942 21.3933 119.396 21.484 120.036 21.484H121.06C121.732 21.484 122.217 21.3987 122.516 21.228C122.825 21.0573 122.98 20.796 122.98 20.444ZM120.516 15.196C121.518 15.196 122.02 14.7693 122.02 13.916V13.644C122.02 12.7907 121.518 12.364 120.516 12.364C119.513 12.364 119.012 12.7907 119.012 13.644V13.916C119.012 14.7693 119.513 15.196 120.516 15.196Z" fill="#121111"/>
</svg>
